<?xml version="1.0" standalone="no"?>
<!DOCTYPE svg PUBLIC "-//W3C//DTD SVG 20010904//EN"
 "http://www.w3.org/TR/2001/REC-SVG-20010904/DTD/svg10.dtd">
<svg version="1.0" xmlns="http://www.w3.org/2000/svg"
 width="284.000000pt" height="284.000000pt" viewBox="0 0 284.000000 284.000000"
 preserveAspectRatio="xMidYMid meet">
<metadata>
Created by potrace 1.11, written by Peter Selinger 2001-2013
</metadata>
<g transform="translate(0.000000,284.000000) scale(0.100000,-0.100000)"
fill="#000000" stroke="none">
<path d="M0 2150 l0 -690 216 2 215 3 -1 413 -1 412 991 0 990 0 0 -415 0
-415 215 0 215 0 0 690 0 690 -1420 0 -1420 0 0 -690z"/>
<path d="M0 680 l0 -680 1420 0 1420 0 0 680 0 680 -215 0 -215 0 0 -415 0
-415 -990 0 -990 0 0 415 0 415 -215 0 -215 0 0 -680z"/>
<path d="M530 995 l0 -365 890 0 890 0 0 365 0 365 -890 0 -890 0 0 -365z"/>
</g>
</svg>
